HIERARCHY
ROOT Hips
{
  OFFSET 13.6774 106.653 -34.4427
  CHANNELS 6 Xposition Yposition Zposition Zrotation Xrotation Yrotation
  JOINT ToSpine
  {
    OFFSET -2.69724 7.43032 -0.144315
    CHANNELS 3 Zrotation Xrotation Yrotation
    JOINT Spine
    {
      OFFSET -0.0310711 10.7595 1.96963
      CHANNELS 3 Zrotation Xrotation Yrotation
      JOINT Spine1
      {
        OFFSET 19.9056 3.91189 0.764692
        CHANNELS 3 Zrotation Xrotation Yrotation
        JOINT Neck
        {
          OFFSET 25.9749 7.03908 -0.130764
          CHANNELS 3 Zrotation Xrotation Yrotation
          JOINT Head
          {
            OFFSET 9.52751 0.295786 -0.907742
            CHANNELS 3 Zrotation Xrotation Yrotation
            End Site
            {
              OFFSET 16.4037 0.713936 2.7358
            }
          }
        }
        JOINT LeftShoulder
        {
          OFFSET 17.7449 4.33886 11.7777
          CHANNELS 3 Zrotation Xrotation Yrotation
          JOINT LeftArm
          {
            OFFSET 0.911315 1.27913 9.80584
            CHANNELS 3 Zrotation Xrotation Yrotation
            JOINT LeftForeArm
            {
              OFFSET 28.6126 1.18197 -3.53199
              CHANNELS 3 Zrotation Xrotation Yrotation
              JOINT LeftHand
              {
                OFFSET 27.5088 0.0218783 0.327423
                CHANNELS 3 Zrotation Xrotation Yrotation
                End Site
                {
                  OFFSET 18.6038 -0.000155887 0.382096
                }
              }
            }
          }
        }
        JOINT RightShoulder
        {
          OFFSET 17.1009 2.89543 -12.2328
          CHANNELS 3 Zrotation Xrotation Yrotation
          JOINT RightArm
          {
            OFFSET 1.4228 0.178766 -10.211
            CHANNELS 3 Zrotation Xrotation Yrotation
            JOINT RightForeArm
            {
              OFFSET 28.733 1.87905 2.64907
              CHANNELS 3 Zrotation Xrotation Yrotation
              JOINT RightHand
              {
                OFFSET 27.4588 0.290562 -0.101845
                CHANNELS 3 Zrotation Xrotation Yrotation
                End Site
                {
                  OFFSET 17.8396 -0.255518 -0.000602873
                }
              }
            }
          }
        }
      }
    }
  }
  JOINT LeftUpLeg
  {
    OFFSET -5.61296 -2.22332 -10.2353
    CHANNELS 3 Zrotation Xrotation Yrotation
    JOINT LeftLeg
    {
      OFFSET 2.56703 -44.7417 -7.93097
      CHANNELS 3 Zrotation Xrotation Yrotation
      JOINT LeftFoot
      {
        OFFSET 3.16933 -46.5642 -3.96578
        CHANNELS 3 Zrotation Xrotation Yrotation
        JOINT LeftToeBase
        {
          OFFSET 0.346054 -6.02161 12.8035
          CHANNELS 3 Zrotation Xrotation Yrotation
          End Site
          {
            OFFSET 0.134235 -1.35082 5.13018
          }
        }
      }
    }
  }
  JOINT RightUpLeg
  {
    OFFSET -5.7928 -1.72406 10.6446
    CHANNELS 3 Zrotation Xrotation Yrotation
    JOINT RightLeg
    {
      OFFSET -2.57161 -44.7178 -7.85259
      CHANNELS 3 Zrotation Xrotation Yrotation
      JOINT RightFoot
      {
        OFFSET -3.10148 -46.5936 -4.03391
        CHANNELS 3 Zrotation Xrotation Yrotation
        JOINT RightToeBase
        {
          OFFSET -0.0828122 -6.13587 12.8035
          CHANNELS 3 Zrotation Xrotation Yrotation
          End Site
          {
            OFFSET -0.131328 -1.35082 5.13018
          }
        }
      }
    }
  }
}
MOTION
Frames: 17
Frame Time: 0.03333333333333333
0.0000 93.1000 0.0000 -0.6497 -70.6820 -91.4640 -70.6127 0.0405 88.4372 135.9156 57.7670 -58.6417 -1.1883 19.5397 -4.2938 -161.7468 19.2842 166.8987 -157.7535 57.3668 180.0596 1.0453 -6.4601 -18.9392 -93.8532 28.4638 -153.6235 20.2108 20.8655 -44.5879 13.0383 -1.5549 -2.1413 -0.4083 1.4775 16.8713 -93.0831 -36.8650 60.3322 2.0131 -13.5857 15.0574 5.1282 0.1565 -1.5516 -13.9810 27.5830 72.6886 -23.1445 78.3383 -2.1556 2.6455 -0.5285 -0.9135 -8.5246 -42.7840 18.1722 -7.3435 -33.1272 113.2165 159.5237 74.0570 -141.3060 -9.4710 -3.1042 1.3555 12.5723 -37.4350 -17.5515 
0.0000 93.1000 0.0000 -12.6012 -72.4906 -100.6445 -70.8846 0.9448 88.3565 135.7943 58.8473 -55.2688 -1.2855 19.7272 -3.0345 -157.2063 17.3103 165.2282 -151.9118 55.4038 175.1911 1.6196 -4.4360 -17.1685 -100.2039 23.5716 -136.6316 14.2257 20.7429 -32.6107 12.8844 -0.8945 0.3826 0.9142 3.1130 12.8722 -90.6748 -34.3268 56.2222 1.0967 -18.5539 12.0734 3.6603 -0.3425 -0.8387 -22.6593 35.2986 73.4540 -12.3190 69.0292 -14.5826 0.3617 -0.7632 -1.5820 -8.0562 -34.6898 21.7497 -4.2578 -35.0719 114.0080 153.8734 77.9586 -139.2981 -9.4616 -3.6518 2.3294 13.3742 -31.2644 -19.3878 
0.0000 93.1000 0.0000 -21.9734 -74.4696 -110.7209 -70.9443 2.3197 88.2068 136.0004 58.6537 -54.8109 1.3361 18.8636 -1.2261 -153.7757 15.9909 167.4165 -150.4765 53.6754 171.9403 2.6300 -3.1005 -16.6150 -99.2027 20.3840 -119.9262 8.5737 24.9096 -20.5954 11.9273 -1.1619 1.1868 1.7415 4.4861 11.6010 -88.4391 -32.1309 52.0727 -0.2331 -17.2738 12.4415 2.6826 0.1944 -1.1894 -37.5828 40.5571 77.8876 -5.7905 54.3158 -19.1895 -3.4317 -1.5042 -1.5856 -7.5380 -20.3478 25.4646 -6.6586 -37.8014 111.4344 117.6787 84.1353 -105.3419 -9.1707 -5.1094 3.3612 11.8689 -21.3158 -19.9091 
0.0000 93.1000 0.0000 -27.7107 -75.0580 -118.6966 -70.8122 0.4682 88.0521 134.7985 59.2409 -50.6830 4.5808 18.1925 -1.0711 -153.7968 17.1381 169.7065 -145.8364 52.9173 168.5847 1.4605 -1.5110 -16.2861 -100.9693 22.6207 -102.9854 0.7014 33.5294 -9.1843 11.4820 -0.6944 2.0632 0.3848 5.0885 11.9376 -86.8317 -30.0513 52.9155 -1.1937 -15.3138 10.9447 1.8393 -0.2471 -2.5987 -49.8593 41.2809 79.5726 -3.7831 38.6440 -17.1371 -7.2344 2.9876 0.4250 -6.8548 -2.7662 26.7693 -12.6569 -40.4656 107.9678 21.4660 79.1438 -8.4552 -8.8404 -3.2530 1.2299 7.9312 -7.5878 -19.1988 
0.0000 93.1000 0.0000 -20.1825 -73.2327 -111.5705 -70.9023 0.0089 88.2855 131.8004 60.8301 -45.9030 6.6719 16.9941 0.9656 -153.7968 17.0741 171.0322 -141.4811 52.0280 164.5270 1.1027 -0.5473 -16.9017 -103.0302 26.1693 -86.7878 -3.4476 34.0832 -1.4493 11.0917 -0.1283 2.9455 0.0707 4.2028 13.9816 -83.9941 -28.3500 56.4361 -2.8743 -10.9982 10.9288 1.5461 -0.6487 -2.0489 -46.5588 40.9324 75.0421 -3.5093 36.5548 -13.3519 -4.8462 8.1649 0.2302 -6.1278 1.1117 22.6520 -17.0391 -42.0304 103.7620 6.5002 62.5533 5.8802 -6.2136 -1.8853 0.3236 3.5402 8.8833 -16.4690 
0.0000 93.1000 0.0000 -11.4173 -73.0900 -102.5604 -71.0938 -0.3924 88.2257 131.6667 60.9257 -44.7514 8.5920 17.2161 2.8651 -155.1267 18.3353 171.0382 -137.3382 52.1245 163.3897 0.7861 -0.7596 -18.3141 -104.1884 29.5138 -73.0339 -7.5902 29.2582 2.6859 11.3835 0.0038 2.9131 -0.1679 2.0914 15.0754 -82.8073 -27.2630 63.7534 -2.2096 -8.4582 12.1426 0.6678 -0.7632 -1.3018 -34.6522 39.1172 71.0320 -5.1493 52.1325 -9.9048 -2.2604 7.1324 -0.4988 -5.9555 -6.9467 20.3621 -24.3553 -42.3872 102.8607 3.4795 50.1294 9.8321 -3.4903 1.5775 -0.4706 -0.9363 19.3089 -9.7872 
0.0000 93.1000 0.0000 -9.1613 -74.1088 -101.7082 -71.1662 -0.6696 88.1281 135.3743 60.5609 -49.5109 11.4397 17.8179 2.2411 -157.0176 19.2730 170.1801 -135.5691 52.6425 163.5225 0.6643 -0.9893 -18.7677 -105.2269 28.2607 -66.0382 -10.7047 33.4792 7.8250 10.0959 0.2308 3.5699 -0.2481 -0.1085 16.4959 -81.3211 -25.8222 73.5043 -3.0346 -5.5522 13.9029 0.6365 -1.0172 -0.8480 -24.5281 36.6291 68.9787 -11.3759 70.7171 -5.5386 2.1487 7.6010 -0.9688 -6.1654 -17.5180 18.9572 -27.5275 -40.9161 101.7113 4.3319 51.0871 12.0177 -1.9025 3.0702 -1.2390 -1.6272 18.0341 -8.1113 
0.0000 93.1000 0.0000 -4.8130 -76.2420 -94.9350 -71.1529 -0.6431 87.9158 140.8045 59.1716 -54.3761 14.2583 19.0556 2.6055 -156.9036 19.9205 170.1503 -134.5720 53.9647 164.3707 0.4633 -1.5878 -20.8640 -107.4389 28.2882 -61.1196 -11.1975 40.9331 9.5286 8.2225 0.9069 3.2972 0.2163 -1.4865 19.4009 -81.1215 -24.2875 83.8175 -1.1708 -5.1188 15.9247 3.2644 -1.7598 -0.5778 -14.8398 32.9519 65.0998 -114.3676 84.3736 98.4013 4.1612 7.7785 -1.9576 -6.9163 -23.5910 16.9571 -31.2794 -41.0492 92.0143 5.6658 59.7550 5.7301 -3.5934 -0.9224 -0.2721 5.1849 3.2951 -16.3956 
0.0000 93.1000 0.0000 -2.9759 -77.4712 -91.8117 -71.3080 -0.1162 88.0021 145.6517 58.4066 -55.5633 15.6333 19.6160 3.9543 -157.9807 20.4729 171.1014 -133.9817 54.4440 164.9875 1.1197 -2.6442 -20.8103 -109.4628 27.9130 -56.0461 -10.8467 45.7846 10.4496 8.0946 0.1587 3.8694 -0.2213 -0.8260 22.4682 -86.9019 -19.6217 95.7823 -0.5347 -10.1740 13.8730 4.5138 -0.8866 -1.2937 -6.5624 29.0731 65.3038 -165.0142 70.1325 153.1177 7.0004 7.1986 -1.6709 -7.2347 -24.6460 12.5155 -33.0838 -38.0765 84.9879 7.2470 65.1694 3.0986 -4.7088 -4.0830 0.0685 8.2647 -10.8207 -18.7865 
0.0000 93.1000 0.0000 -7.7152 -76.4866 -93.7234 -71.0921 -0.6450 88.1996 147.9244 58.4105 -55.2973 16.8665 19.8125 2.8196 -159.2741 20.3770 171.5053 -131.4080 53.9519 163.0184 0.9239 -3.2471 -23.0209 -111.1758 31.7257 -54.0567 -11.2248 50.7686 10.6465 7.0551 0.3033 4.4351 -0.7958 0.5600 26.1559 -97.3735 -17.0466 106.3674 -0.7808 -16.4144 9.8422 7.0803 -0.8573 -1.1067 -0.7580 22.9684 71.7898 -168.7221 59.0815 158.7970 7.2655 4.9536 -1.3889 -7.4565 -26.2774 11.7841 -28.7637 -32.8862 82.6391 12.1220 72.5348 1.1308 -6.5216 -4.4630 -0.2643 11.1219 -19.2125 -19.9216 
0.0000 93.1000 0.0000 -10.5587 -73.4127 -94.3793 -70.8257 -1.1828 88.2990 151.6242 57.7586 -55.7020 16.7597 20.0844 3.2616 -159.9471 21.1104 171.8337 -130.5099 54.0925 163.7238 0.4877 -4.3998 -24.6451 -114.2113 38.9340 -54.8193 -13.7084 58.6373 13.5529 6.5536 0.2463 4.1760 -1.4447 1.9391 25.9081 -102.6132 -21.3158 116.8272 -0.0426 -12.0365 9.9688 9.4961 -0.6812 -0.6910 -0.2503 16.8785 85.4361 -169.3391 61.2665 158.8470 6.8083 4.3961 -0.8055 -6.4749 -26.8502 9.1888 -28.6751 -27.9539 76.9222 14.8776 75.7934 -0.2564 -5.6774 -5.7892 -1.1205 9.5000 -15.9542 -19.6307 
0.0000 93.1000 0.0000 -10.7596 -71.1612 -94.2696 -70.4863 -0.3150 88.8531 154.8068 57.0987 -58.8961 16.8331 20.9264 3.7322 -160.1372 20.9257 170.5136 -129.6862 53.7709 162.9568 0.9165 -5.2005 -24.8881 -113.7598 47.1882 -59.8158 -18.7178 64.6618 17.7428 7.6824 0.0490 2.7043 -1.0995 3.5040 23.6901 -101.0529 -24.8896 123.9499 -0.1399 -3.6127 13.9723 9.7605 -0.3547 1.4910 -2.7970 9.0019 99.5479 -158.3122 75.9714 146.2423 5.8815 7.0665 -1.0228 -6.6512 -24.9237 6.8539 -26.9946 -26.6691 70.1056 15.8203 76.0048 -0.9989 -6.9435 -5.2008 -0.2029 7.5310 -8.9216 -15.9164 
0.0000 93.1000 0.0000 -15.6761 -68.2077 -99.7719 -70.3904 -0.0980 88.6719 155.0472 57.7004 -61.3195 15.6769 22.9313 2.0518 -159.3567 21.5117 171.1263 -130.8661 54.9731 163.3255 0.7489 -4.8145 -26.1093 -106.5266 54.4674 -67.7719 -21.2436 63.3810 15.9536 9.7548 0.0895 2.0014 -0.9281 4.1466 22.3257 -86.9931 -21.1581 133.9966 -0.9410 0.9129 18.8526 6.0979 -0.5379 3.1237 -7.6397 -0.1751 110.1862 -27.3245 79.4815 12.2929 4.4722 7.7831 -1.3778 -5.7184 -21.4869 6.4634 -20.2323 -26.4744 70.8519 19.8197 77.9561 -6.2158 -5.6044 -3.2715 -0.0221 -4.4495 11.3802 -2.6113 
0.0000 93.1000 0.0000 -23.5749 -68.0259 -109.2273 -70.4334 -0.6154 88.4847 154.9220 58.0385 -62.4634 15.3562 25.0696 0.4616 -158.1446 21.2285 172.0109 -131.9818 54.6930 166.2786 0.3782 -4.8878 -26.3548 -100.1848 57.9446 -74.9722 -20.2624 56.6672 13.0580 12.4438 0.1692 1.1829 -1.3664 5.1108 21.1254 -76.8333 -22.5415 139.7760 6.3270 -6.1719 26.1411 1.9582 -0.7192 4.2426 -15.1317 -5.7645 111.0481 -8.3439 65.0317 -5.6070 3.8829 9.0745 -1.2371 -4.8484 -15.9426 7.5096 -18.2230 -22.6820 73.5803 18.7053 77.3433 -7.3367 -6.2819 -2.0329 -0.0708 -8.6831 18.4406 2.6481 
0.0000 93.1000 0.0000 -33.8102 -69.3659 -114.3740 -70.6257 -0.1431 88.3299 154.7516 58.5966 -63.1671 15.5383 25.2729 -0.4203 -156.1696 19.4399 171.8493 -133.6993 53.8160 166.3286 1.0744 -4.9736 -26.7693 -101.0211 58.5776 -77.5673 -18.0902 55.8808 12.7652 15.8392 -0.3732 1.6251 -1.2593 6.0473 22.0170 -72.5774 -27.7709 143.8101 16.0831 -17.5764 36.3120 -2.0654 -0.1344 4.9957 -20.8709 -8.5533 104.4068 -6.4194 61.7892 -5.8222 5.1321 9.8411 -0.7927 -5.5565 -14.1905 8.6931 -21.2608 -16.0494 78.9028 10.2342 74.3384 -6.6008 -6.1764 -1.2362 -0.2648 5.1204 7.2153 -18.7701 
0.0000 93.1000 0.0000 -37.5599 -69.0314 -115.9133 -70.8549 -0.1121 88.2420 152.8589 59.2344 -61.1279 14.9405 23.7435 0.2004 -156.0454 17.2487 171.6669 -134.5051 51.7926 166.4987 1.4835 -5.2632 -27.0673 -103.5408 56.4137 -79.5118 -17.6245 56.8626 12.8080 17.3866 -0.7855 2.5078 -1.4677 5.4014 25.0312 -64.7150 -29.1133 146.6968 20.0359 -17.8253 45.8930 -3.8222 0.2972 4.7483 -22.7148 -7.1696 96.2448 -7.3901 66.0195 -0.0149 8.2674 11.5330 -0.7459 -7.0287 -26.7401 8.7583 -25.0380 -10.9884 83.2179 5.1908 66.5247 -5.3940 -5.6297 -3.3255 -0.5118 7.0076 -0.7549 -20.0370 
0.0000 93.1000 0.0000 -31.4528 -69.2116 -107.7158 -70.8515 0.0862 88.2020 147.8286 59.9458 -56.9044 13.6761 21.8370 0.9103 -158.1469 15.0963 168.2197 -136.3565 50.1010 167.8134 1.5254 -5.1061 -28.1684 -104.4090 53.9461 -83.1435 -16.0036 55.2825 12.5600 15.6927 -0.0730 2.4401 -0.6562 4.5682 28.2668 -59.8128 -31.0030 146.4924 23.9890 -16.8756 54.6610 -2.8522 -0.4623 5.3846 -18.1198 -4.3225 91.1526 -11.7183 73.1328 3.6680 9.8203 14.0073 -1.9930 -9.5019 -38.1636 6.2526 -26.2073 -9.0755 84.9439 3.3107 57.6084 -0.3663 -6.4376 -3.7209 0.5408 6.2827 0.1210 -18.3334 
